{
	"nodes":[{
		"name":"imagetostl_mesh0",
		"mesh":0
	}],
	"asset":{
		"version":"2.0",
		"generator":"Created using the official Cinema 4D glTF Exporter 1.000x284978"
	},
	"scenes":[{
		"nodes":[0]
	}],
	"meshes":[{
		"name":"imagetostl_mesh0",
		"primitives":[{
			"attributes":{
				"POSITION":1,
				"NORMAL":2
			},
			"indices":0
		}]
	}],
	"accessors":[{
		"bufferView":0,
		"type":"SCALAR",
		"componentType":5123,
		"count":10638,
		"byteOffset":0,
		"min":[0],
		"max":[5171]
	},
	{
		"bufferView":1,
		"type":"VEC3",
		"componentType":5126,
		"count":5172,
		"byteOffset":0,
		"min":[-28.789520263671876,
		-3.5947964191436769,
		-146.64431762695313],
		"max":[28.53592872619629,
		4.8224101066589359,
		147.40846252441407]
	},
	{
		"bufferView":1,
		"type":"VEC3",
		"componentType":5126,
		"count":5172,
		"byteOffset":12,
		"min":[-0.999998152256012,
		-1.0,
		-1.0],
		"max":[0.9999879598617554,
		1.0,
		0.9999819397926331]
	}],
	"bufferViews":[{
		"buffer":0,
		"byteOffset":0,
		"byteLength":21276,
		"target":34963
	},
	{
		"buffer":0,
		"byteOffset":21276,
		"byteLength":124128,
		"target":34962,
		"byteStride":24
	}],
	"buffers":[{
		"uri":"data:application/octet-stream;base64,",
		"byteLength":145404
	}]
}