{
	"nodes":[{
		"name":"imagetostl_mesh0.1",
		"mesh":0
	}],
	"asset":{
		"version":"2.0",
		"generator":"Created using the official Cinema 4D glTF Exporter 1.000x284978"
	},
	"scenes":[{
		"nodes":[0]
	}],
	"meshes":[{
		"name":"imagetostl_mesh0.1",
		"primitives":[{
			"attributes":{
				"POSITION":1,
				"NORMAL":2,
				"TEXCOORD_0":3
			},
			"indices":0
		}]
	}],
	"accessors":[{
		"bufferView":0,
		"type":"SCALAR",
		"componentType":5123,
		"count":88572,
		"byteOffset":0,
		"min":[0],
		"max":[27748]
	},
	{
		"bufferView":1,
		"type":"VEC3",
		"componentType":5126,
		"count":27749,
		"byteOffset":0,
		"min":[-34.809486389160159,
		-6.649972915649414,
		-150.36526489257813],
		"max":[34.809486389160159,
		6.649972915649414,
		150.36526489257813]
	},
	{
		"bufferView":1,
		"type":"VEC3",
		"componentType":5126,
		"count":27749,
		"byteOffset":12,
		"min":[-0.999996542930603,
		-1.0,
		-1.0],
		"max":[0.999996542930603,
		1.0,
		1.0]
	},
	{
		"bufferView":1,
		"type":"VEC2",
		"componentType":5126,
		"count":27749,
		"byteOffset":24,
		"min":[0.00032602460123598576,
		0.00032602460123598576],
		"max":[0.9990243911743164,
		0.9980778694152832]
	}],
	"bufferViews":[{
		"buffer":0,
		"byteOffset":0,
		"byteLength":177144,
		"target":34963
	},
	{
		"buffer":0,
		"byteOffset":177144,
		"byteLength":887968,
		"target":34962,
		"byteStride":32
	}],
	"buffers":[{
		"uri":"data:application/octet-stream;base64,",
		"byteLength":1065112
	}]
}